<control> default_path=Pizzicato\
<group> seq_length=2 ampeg_release=0.4
<region> hikey=c#3 pitch_keycenter=c3 sample=3_C_1.wav
<region> lokey=d3 hikey=e3 pitch_keycenter=d#3 sample=3_Eb_1.wav
<region> lokey=f3 hikey=g3 pitch_keycenter=f#3 sample=3_Gb_1.wav
<region> lokey=g#3 hikey=a#3 pitch_keycenter=a3 sample=3_A_1.wav
<region> lokey=b3 hikey=c#4 pitch_keycenter=c4 sample=4_C_1.wav
<region> lokey=d4 hikey=e4 pitch_keycenter=d#4 sample=4_Eb_1.wav
<region> lokey=f4 hikey=g4 pitch_keycenter=f#4 sample=4_Gb_1.wav
<region> lokey=g#4 hikey=a#4 pitch_keycenter=a4 sample=4_A_1.wav
<region> lokey=b4 hikey=c#5 pitch_keycenter=c5 sample=5_C_1.wav
<region> lokey=d5 hikey=e5 pitch_keycenter=d#5 sample=5_Eb_1.wav
<region> lokey=f5 hikey=g5 pitch_keycenter=f#5 sample=5_Gb_1.wav
<region> lokey=g#5 pitch_keycenter=a5 sample=5_A_1.wav
<region> hikey=c#3 pitch_keycenter=c3 sample=3_C_2.wav seq_position=2
<region> lokey=d3 hikey=e3 pitch_keycenter=d#3 sample=3_Eb_2.wav seq_position=2
<region> lokey=f3 hikey=g3 pitch_keycenter=f#3 sample=3_Gb_2.wav seq_position=2
<region> lokey=g#3 hikey=a#3 pitch_keycenter=a3 sample=3_A_2.wav seq_position=2
<region> lokey=b3 hikey=c#4 pitch_keycenter=c4 sample=4_C_2.wav seq_position=2
<region> lokey=d4 hikey=e4 pitch_keycenter=d#4 sample=4_Eb_2.wav seq_position=2
<region> lokey=f4 hikey=g4 pitch_keycenter=f#4 sample=4_Gb_2.wav seq_position=2
<region> lokey=g#4 hikey=a#4 pitch_keycenter=a4 sample=4_A_2.wav seq_position=2
<region> lokey=b4 hikey=c#5 pitch_keycenter=c5 sample=5_C_2.wav seq_position=2
<region> lokey=d5 hikey=e5 pitch_keycenter=d#5 sample=5_Eb_2.wav seq_position=2
<region> lokey=f5 hikey=g5 pitch_keycenter=f#5 sample=5_Gb_2.wav seq_position=2
<region> lokey=g#5 pitch_keycenter=a5 sample=5_A_2.wav seq_position=2